<svg id="svg" version="1.1" xmlns="http://www.w3.org/2000/svg" xmlns:xlink="http://www.w3.org/1999/xlink" width="400" height="400" viewBox="0, 0, 400,400"><g id="svgg"><path id="path0" d="M315.209 175.616 C 312.003 177.145,307.569 177.570,302.678 176.817 L 299.400 176.313 296.732 177.656 C 295.265 178.395,292.157 180.260,289.826 181.800 C 276.968 190.293,275.511 191.164,273.707 191.435 C 270.070 191.980,270.396 187.601,270.432 235.500 C 270.468 282.591,270.374 280.887,273.000 282.200 C 274.865 283.132,312.360 283.672,315.552 282.813 C 320.285 281.539,319.971 285.534,320.015 225.969 L 320.052 174.600 318.926 174.490 C 318.293 174.429,316.666 174.922,315.209 175.616 M227.800 184.906 C 226.648 185.380,225.405 186.137,220.961 189.068 C 219.840 189.808,218.040 190.860,216.961 191.407 C 213.917 192.948,206.787 197.403,205.500 198.567 C 204.842 199.162,204.800 201.588,204.801 238.700 C 204.801 283.851,204.496 280.137,208.372 282.100 L 210.543 283.200 229.857 283.200 C 251.665 283.200,252.712 283.075,254.429 280.260 C 255.259 278.898,255.663 193.750,254.845 192.459 C 254.657 192.162,253.502 191.686,252.278 191.402 C 250.680 191.030,248.855 190.061,245.792 187.957 L 241.530 185.030 238.265 184.994 C 236.469 184.975,233.650 184.836,232.000 184.686 C 229.955 184.500,228.618 184.570,227.800 184.906 M122.156 195.469 C 121.300 196.058,119.425 197.116,117.988 197.821 C 115.438 199.074,115.359 199.159,114.653 201.452 C 111.669 211.141,97.176 220.915,87.400 219.831 C 85.183 219.586,78.915 217.993,76.915 217.167 C 75.030 216.388,75.121 214.786,75.178 247.871 L 75.232 278.600 76.190 280.052 C 78.280 283.219,78.135 283.201,100.226 283.196 L 119.800 283.192 121.869 282.229 C 125.733 280.430,125.385 284.727,125.507 237.267 C 125.586 206.439,125.495 195.355,125.158 194.950 C 124.503 194.160,123.913 194.262,122.156 195.469 M140.384 197.513 C 140.374 197.671,140.382 215.830,140.399 237.867 C 140.436 283.725,140.233 280.912,143.616 282.288 C 146.496 283.459,182.539 283.710,186.325 282.585 C 190.050 281.479,189.764 284.396,190.051 244.600 C 190.190 225.460,190.334 209.456,190.371 209.036 C 190.545 207.106,188.581 207.390,186.109 209.652 C 185.179 210.503,184.128 211.200,183.774 211.200 C 183.420 211.200,182.000 211.832,180.618 212.605 C 175.406 215.520,161.666 215.528,157.800 212.618 C 157.140 212.122,156.150 211.577,155.600 211.408 C 152.861 210.568,147.621 205.799,143.885 200.748 C 141.872 198.026,140.430 196.694,140.384 197.513 " stroke="none" fill="#22294a" fill-rule="evenodd"></path><path id="path1" d="M0.000 200.000 L 0.000 400.000 200.000 400.000 L 400.000 400.000 400.000 200.000 L 400.000 0.000 200.000 0.000 L 0.000 0.000 0.000 200.000 M311.315 133.238 C 313.399 133.727,317.129 136.250,318.927 138.386 C 329.225 150.625,315.689 168.492,300.863 162.230 L 298.325 161.158 296.663 162.020 C 295.748 162.493,292.750 164.366,290.000 166.181 C 287.250 167.997,284.550 169.716,284.000 170.002 C 283.450 170.288,282.550 170.858,282.000 171.268 C 266.862 182.555,260.052 183.006,248.034 173.517 C 245.031 171.146,244.979 171.124,243.000 171.377 C 237.497 172.081,236.575 172.084,234.987 171.405 C 229.719 169.152,228.240 169.198,224.400 171.737 C 222.970 172.682,218.920 175.126,215.400 177.167 C 211.880 179.209,207.830 181.569,206.400 182.411 C 204.970 183.253,202.935 184.451,201.877 185.071 C 200.819 185.692,198.439 187.145,196.587 188.300 C 194.736 189.455,193.063 190.400,192.871 190.400 C 192.678 190.400,191.790 190.929,190.898 191.575 C 190.005 192.222,188.223 193.303,186.938 193.977 C 185.652 194.652,182.980 196.217,181.000 197.454 C 169.081 204.903,161.460 202.889,151.689 189.708 C 150.748 188.439,149.331 186.526,148.539 185.459 C 146.713 182.995,145.313 182.393,142.088 182.686 C 139.284 182.940,137.075 182.301,133.926 180.325 C 130.326 178.067,129.809 178.078,124.290 180.520 C 121.600 181.709,118.770 182.915,118.000 183.198 C 117.230 183.481,115.160 184.383,113.400 185.201 C 111.640 186.020,109.260 186.997,108.112 187.373 C 105.945 188.082,104.147 189.741,103.822 191.331 C 103.724 191.809,103.534 193.047,103.400 194.082 C 102.669 199.731,95.703 205.871,89.523 206.313 C 84.457 206.675,79.866 204.567,76.407 200.291 C 66.432 187.965,78.922 171.427,94.185 176.750 C 99.009 178.432,98.898 178.462,115.301 171.159 C 117.226 170.301,118.986 169.600,119.212 169.600 C 121.652 169.600,126.258 165.973,127.003 163.465 C 132.484 145.008,160.934 151.269,157.012 170.069 C 156.062 174.624,156.152 175.151,158.411 178.245 C 168.294 191.784,167.712 191.593,178.473 184.829 C 179.724 184.043,182.154 182.610,183.873 181.644 C 185.593 180.678,188.080 179.225,189.400 178.414 C 193.073 176.159,203.669 169.861,204.700 169.320 C 205.204 169.055,206.647 168.218,207.908 167.459 C 209.169 166.699,212.701 164.576,215.758 162.739 C 222.280 158.821,222.735 158.314,223.224 154.420 C 225.660 135.019,254.711 138.000,253.493 157.525 C 253.225 161.820,253.393 162.242,256.251 164.422 C 262.336 169.064,263.728 169.013,271.278 163.877 C 273.276 162.518,274.923 161.448,280.139 158.118 C 281.932 156.973,284.210 155.482,285.200 154.806 C 286.190 154.130,287.627 153.172,288.394 152.676 C 290.227 151.493,291.447 149.240,291.762 146.456 C 292.820 137.109,301.836 131.014,311.315 133.238 M322.553 171.148 C 323.734 172.453,323.598 277.725,322.412 280.174 C 321.264 282.547,319.241 284.526,316.684 285.776 L 314.533 286.829 294.567 286.714 L 274.600 286.600 272.791 285.516 C 270.463 284.122,269.139 282.694,267.837 280.170 L 266.789 278.140 266.895 235.035 L 267.000 191.931 268.106 190.979 C 268.715 190.456,269.975 189.826,270.906 189.581 C 273.925 188.785,278.982 185.761,295.575 174.833 L 297.750 173.400 305.576 173.400 L 313.402 173.400 316.401 171.904 C 319.735 170.240,321.532 170.019,322.553 171.148 M237.400 181.914 C 242.022 182.288,243.378 182.750,246.076 184.870 C 247.870 186.279,254.289 189.600,255.220 189.600 C 256.442 189.600,257.999 191.579,258.016 193.155 C 258.025 193.950,258.023 213.452,258.012 236.493 C 257.988 284.679,258.294 280.801,254.267 284.044 C 250.742 286.884,251.029 286.853,229.200 286.719 L 209.800 286.600 208.000 285.533 C 205.738 284.192,203.494 281.821,202.762 280.000 C 201.890 277.828,201.926 198.454,202.800 197.401 C 203.522 196.530,207.437 193.601,207.883 193.597 C 208.057 193.596,209.404 192.831,210.876 191.897 C 212.348 190.964,214.481 189.660,215.616 189.000 C 220.930 185.910,221.952 185.294,224.132 183.864 C 227.610 181.583,228.739 181.174,231.000 181.378 C 232.100 181.477,234.980 181.718,237.400 181.914 M127.578 192.663 L 128.414 193.726 128.307 236.363 L 128.200 279.000 127.200 280.881 C 126.072 283.003,122.667 285.777,120.425 286.400 C 118.532 286.926,81.874 286.929,80.000 286.403 C 77.760 285.774,74.077 282.622,73.075 280.474 C 72.225 278.653,71.403 218.492,72.186 215.328 C 72.782 212.915,74.660 212.638,78.319 214.423 C 90.275 220.256,105.333 214.419,111.737 201.469 C 114.213 196.461,114.507 196.153,118.600 194.256 C 119.700 193.746,121.410 192.952,122.400 192.490 C 124.956 191.297,126.545 191.350,127.578 192.663 M142.615 194.945 C 143.173 195.635,144.548 197.460,145.670 199.000 C 155.714 212.784,171.846 216.028,185.407 206.989 C 190.403 203.658,192.281 203.382,193.215 205.841 C 193.476 206.525,193.579 219.482,193.508 242.748 L 193.400 278.600 192.052 280.932 C 190.612 283.424,188.566 285.165,185.870 286.194 C 184.408 286.751,181.729 286.816,164.394 286.715 L 144.588 286.600 142.194 284.973 C 139.548 283.174,137.477 280.244,137.058 277.707 C 136.537 274.553,136.767 194.995,137.300 194.310 C 138.412 192.880,141.216 193.216,142.615 194.945 " stroke="none" fill="#f3f3f4" fill-rule="evenodd"></path><path id="path2" d="M303.949 134.775 C 298.119 135.912,293.661 141.149,293.618 146.913 C 293.583 151.469,292.825 152.267,282.800 158.304 C 281.150 159.297,278.891 160.799,277.780 161.642 C 276.669 162.485,275.049 163.467,274.180 163.824 C 273.311 164.182,272.150 164.887,271.600 165.390 C 266.052 170.472,262.214 171.031,257.647 167.422 C 255.803 165.964,253.943 164.584,253.514 164.354 C 252.083 163.588,251.686 161.811,251.907 157.157 L 252.112 152.833 250.400 150.000 C 243.293 138.238,227.039 141.289,225.136 154.742 C 224.884 156.526,224.390 158.455,224.039 159.027 C 223.399 160.070,215.383 165.297,212.000 166.879 C 211.010 167.341,209.660 168.123,209.000 168.615 C 208.340 169.108,206.810 170.005,205.600 170.609 C 204.390 171.213,202.922 172.088,202.337 172.554 C 201.753 173.019,199.798 174.210,197.994 175.200 C 196.190 176.190,193.428 177.826,191.857 178.835 C 188.991 180.675,187.567 181.504,182.000 184.574 C 180.350 185.483,177.411 187.288,175.468 188.584 C 169.590 192.504,166.411 192.113,163.053 187.053 C 162.243 185.833,161.404 184.726,161.188 184.593 C 160.973 184.459,160.048 183.237,159.133 181.875 C 158.218 180.514,156.888 178.746,156.178 177.946 C 154.534 176.096,154.190 174.111,154.989 171.080 C 157.922 159.951,148.525 151.249,137.022 154.443 C 133.541 155.409,129.520 160.255,128.594 164.600 C 128.153 166.667,124.975 169.311,121.370 170.609 C 119.626 171.237,117.840 171.969,117.400 172.236 C 116.960 172.503,114.080 173.753,111.000 175.014 C 107.920 176.275,103.996 177.912,102.281 178.653 C 98.457 180.304,98.271 180.306,94.467 178.728 C 84.280 174.505,74.984 180.273,75.012 190.800 C 75.043 202.285,86.924 208.274,96.844 201.804 C 98.867 200.485,101.994 195.172,102.018 193.013 C 102.059 189.228,103.543 187.072,106.748 186.140 C 107.962 185.787,110.279 184.801,111.897 183.949 C 113.514 183.097,115.082 182.400,115.381 182.400 C 115.946 182.400,121.175 180.073,125.513 177.891 C 128.505 176.387,131.173 176.283,132.799 177.607 C 135.506 179.811,138.428 180.799,142.240 180.800 C 146.665 180.800,148.112 181.629,150.868 185.744 C 158.909 197.748,161.912 199.857,170.515 199.538 C 174.549 199.389,174.710 199.346,177.446 197.693 C 178.987 196.762,180.386 196.000,180.555 196.000 C 180.723 196.000,181.867 195.280,183.096 194.400 C 184.325 193.520,185.534 192.800,185.784 192.800 C 186.033 192.800,187.471 191.990,188.978 191.000 C 190.485 190.010,191.956 189.200,192.245 189.200 C 192.535 189.200,193.363 188.684,194.086 188.053 C 194.809 187.422,196.390 186.406,197.600 185.796 C 198.810 185.186,200.340 184.283,201.000 183.790 C 201.660 183.296,202.609 182.769,203.108 182.617 C 203.607 182.465,204.808 181.736,205.776 180.997 C 206.745 180.258,209.486 178.588,211.868 177.286 C 214.251 175.984,217.749 173.917,219.643 172.694 C 227.487 167.625,228.830 167.265,233.438 169.000 C 236.344 170.094,238.240 170.224,241.762 169.573 C 244.772 169.017,245.521 169.306,249.639 172.620 C 259.692 180.710,265.749 180.318,280.128 170.647 C 283.609 168.307,287.029 166.098,287.728 165.740 C 288.428 165.381,289.540 164.650,290.200 164.115 C 295.481 159.832,298.269 159.013,302.014 160.643 C 312.199 165.076,323.001 155.681,320.236 144.794 C 318.342 137.340,311.712 133.261,303.949 134.775 " stroke="none" fill="#51bacc" fill-rule="evenodd"></path><path id="path3" d="M304.301 133.045 C 297.720 134.275,292.510 139.847,291.762 146.456 C 291.447 149.240,290.227 151.493,288.394 152.676 C 287.627 153.172,286.190 154.130,285.200 154.806 C 284.210 155.482,281.932 156.973,280.139 158.118 C 274.923 161.448,273.276 162.518,271.278 163.877 C 263.728 169.013,262.336 169.064,256.251 164.422 C 253.393 162.242,253.225 161.820,253.493 157.525 C 253.921 150.667,250.783 145.419,244.526 142.528 C 235.238 138.236,224.504 144.228,223.224 154.420 C 222.735 158.314,222.280 158.821,215.758 162.739 C 212.701 164.576,209.169 166.699,207.908 167.459 C 206.647 168.218,205.204 169.055,204.700 169.320 C 203.669 169.861,193.073 176.159,189.400 178.414 C 188.080 179.225,185.593 180.678,183.873 181.644 C 182.154 182.610,179.724 184.043,178.473 184.829 C 168.427 191.144,167.946 191.091,161.911 182.997 C 155.693 174.658,155.926 175.275,157.012 170.069 C 160.934 151.269,132.484 145.008,127.003 163.465 C 126.258 165.973,121.652 169.600,119.212 169.600 C 118.986 169.600,117.226 170.301,115.301 171.159 C 98.898 178.462,99.009 178.432,94.185 176.750 C 78.922 171.427,66.432 187.965,76.407 200.291 C 83.371 208.899,95.118 208.278,101.186 198.982 C 102.556 196.884,103.231 195.390,103.400 194.082 C 103.534 193.047,103.724 191.809,103.822 191.331 C 104.147 189.741,105.945 188.082,108.112 187.373 C 109.260 186.997,111.640 186.020,113.400 185.201 C 115.160 184.383,117.230 183.481,118.000 183.198 C 118.770 182.915,121.600 181.709,124.290 180.520 C 129.809 178.078,130.326 178.067,133.926 180.325 C 137.075 182.301,139.284 182.940,142.088 182.686 C 145.313 182.393,146.713 182.995,148.539 185.459 C 149.331 186.526,150.748 188.439,151.689 189.708 C 161.460 202.889,169.081 204.903,181.000 197.454 C 182.980 196.217,185.652 194.652,186.938 193.977 C 188.223 193.303,190.005 192.222,190.898 191.575 C 191.790 190.929,192.678 190.400,192.871 190.400 C 193.063 190.400,194.736 189.455,196.587 188.300 C 198.439 187.145,200.819 185.692,201.877 185.071 C 202.935 184.451,204.970 183.253,206.400 182.411 C 207.830 181.569,211.880 179.209,215.400 177.167 C 218.920 175.126,222.970 172.682,224.400 171.737 C 228.240 169.198,229.719 169.152,234.987 171.405 C 236.575 172.084,237.497 172.081,243.000 171.377 C 244.979 171.124,245.031 171.146,248.034 173.517 C 260.052 183.006,266.862 182.555,282.000 171.268 C 282.550 170.858,283.450 170.288,284.000 170.002 C 284.550 169.716,287.250 167.997,290.000 166.181 C 292.750 164.366,295.748 162.493,296.663 162.020 L 298.325 161.158 300.863 162.230 C 315.689 168.492,329.225 150.625,318.927 138.386 C 315.118 133.860,309.981 131.983,304.301 133.045 M311.047 134.992 C 315.699 136.373,318.988 139.882,320.236 144.794 C 323.001 155.681,312.199 165.076,302.014 160.643 C 298.269 159.013,295.481 159.832,290.200 164.115 C 289.540 164.650,288.428 165.381,287.728 165.740 C 287.029 166.098,283.609 168.307,280.128 170.647 C 265.749 180.318,259.692 180.710,249.639 172.620 C 245.521 169.306,244.772 169.017,241.762 169.573 C 238.240 170.224,236.344 170.094,233.438 169.000 C 228.830 167.265,227.487 167.625,219.643 172.694 C 217.749 173.917,214.251 175.984,211.868 177.286 C 209.486 178.588,206.745 180.258,205.776 180.997 C 204.808 181.736,203.607 182.465,203.108 182.617 C 202.609 182.769,201.660 183.296,201.000 183.790 C 200.340 184.283,198.810 185.186,197.600 185.796 C 196.390 186.406,194.809 187.422,194.086 188.053 C 193.363 188.684,192.535 189.200,192.245 189.200 C 191.956 189.200,190.485 190.010,188.978 191.000 C 187.471 191.990,186.033 192.800,185.784 192.800 C 185.534 192.800,184.325 193.520,183.096 194.400 C 181.867 195.280,180.723 196.000,180.555 196.000 C 180.386 196.000,178.987 196.762,177.446 197.693 C 174.710 199.346,174.549 199.389,170.515 199.538 C 161.912 199.857,158.909 197.748,150.868 185.744 C 148.112 181.629,146.665 180.800,142.240 180.800 C 138.428 180.799,135.506 179.811,132.799 177.607 C 131.173 176.283,128.505 176.387,125.513 177.891 C 121.175 180.073,115.946 182.400,115.381 182.400 C 115.082 182.400,113.514 183.097,111.897 183.949 C 110.279 184.801,107.962 185.787,106.748 186.140 C 103.543 187.072,102.059 189.228,102.018 193.013 C 101.994 195.172,98.867 200.485,96.844 201.804 C 86.924 208.274,75.043 202.285,75.012 190.800 C 74.984 180.273,84.280 174.505,94.467 178.728 C 98.271 180.306,98.457 180.304,102.281 178.653 C 103.996 177.912,107.920 176.275,111.000 175.014 C 114.080 173.753,116.960 172.503,117.400 172.236 C 117.840 171.969,119.626 171.237,121.370 170.609 C 124.975 169.311,128.153 166.667,128.594 164.600 C 129.520 160.255,133.541 155.409,137.022 154.443 C 148.525 151.249,157.922 159.951,154.989 171.080 C 154.190 174.111,154.534 176.096,156.178 177.946 C 156.888 178.746,158.218 180.514,159.133 181.875 C 160.048 183.237,160.973 184.459,161.188 184.593 C 161.404 184.726,162.243 185.833,163.053 187.053 C 166.411 192.113,169.590 192.504,175.468 188.584 C 177.411 187.288,180.350 185.483,182.000 184.574 C 187.567 181.504,188.991 180.675,191.857 178.835 C 193.428 177.826,196.190 176.190,197.994 175.200 C 199.798 174.210,201.753 173.019,202.337 172.554 C 202.922 172.088,204.390 171.213,205.600 170.609 C 206.810 170.005,208.340 169.108,209.000 168.615 C 209.660 168.123,211.010 167.341,212.000 166.879 C 215.383 165.297,223.399 160.070,224.039 159.027 C 224.390 158.455,224.884 156.526,225.136 154.742 C 227.039 141.289,243.293 138.238,250.400 150.000 L 252.112 152.833 251.907 157.157 C 251.686 161.811,252.083 163.588,253.514 164.354 C 253.943 164.584,255.803 165.964,257.647 167.422 C 262.214 171.031,266.052 170.472,271.600 165.390 C 272.150 164.887,273.311 164.182,274.180 163.824 C 275.049 163.467,276.669 162.485,277.780 161.642 C 278.891 160.799,281.150 159.297,282.800 158.304 C 292.825 152.267,293.583 151.469,293.618 146.913 C 293.681 138.522,302.538 132.465,311.047 134.992 M316.401 171.904 L 313.402 173.400 305.576 173.400 L 297.750 173.400 295.575 174.833 C 278.982 185.761,273.925 188.785,270.906 189.581 C 269.975 189.826,268.715 190.456,268.106 190.979 L 267.000 191.931 266.895 235.035 L 266.789 278.140 267.837 280.170 C 269.139 282.694,270.463 284.122,272.791 285.516 L 274.600 286.600 294.567 286.714 L 314.533 286.829 316.684 285.776 C 319.241 284.526,321.264 282.547,322.412 280.174 C 323.598 277.725,323.734 172.453,322.553 171.148 C 321.532 170.019,319.735 170.240,316.401 171.904 M321.177 172.972 C 321.538 173.408,321.644 186.037,321.618 225.872 L 321.584 278.200 320.611 280.200 C 318.255 285.040,317.114 285.253,294.302 285.115 L 275.400 285.000 273.335 283.911 C 268.538 281.381,268.805 284.236,268.802 235.480 C 268.800 187.315,268.419 191.720,272.696 190.399 C 274.177 189.942,276.291 188.969,277.394 188.238 C 278.497 187.506,280.930 185.955,282.800 184.792 C 284.670 183.628,287.910 181.568,290.000 180.212 C 299.765 173.881,298.574 174.301,304.117 175.225 C 307.629 175.811,312.717 175.136,316.600 173.570 C 319.822 172.271,320.519 172.180,321.177 172.972 M227.732 181.766 C 227.035 182.079,225.415 183.023,224.132 183.864 C 221.952 185.294,220.930 185.910,215.616 189.000 C 214.481 189.660,212.348 190.964,210.876 191.897 C 209.404 192.831,208.057 193.596,207.883 193.597 C 207.437 193.601,203.522 196.530,202.800 197.401 C 201.926 198.454,201.890 277.828,202.762 280.000 C 203.494 281.821,205.738 284.192,208.000 285.533 L 209.800 286.600 229.200 286.719 C 251.029 286.853,250.742 286.884,254.267 284.044 C 258.294 280.801,257.988 284.679,258.012 236.493 C 258.023 213.452,258.025 193.950,258.016 193.155 C 257.999 191.579,256.442 189.600,255.220 189.600 C 254.289 189.600,247.870 186.279,246.076 184.870 C 243.378 182.750,242.022 182.288,237.400 181.914 C 234.980 181.718,232.100 181.477,231.000 181.378 C 229.762 181.266,228.517 181.414,227.732 181.766 M237.600 183.552 C 241.868 183.812,242.681 184.071,245.200 185.973 C 247.728 187.882,251.366 189.868,253.280 190.385 C 256.934 191.372,256.600 186.804,256.600 235.742 C 256.600 283.926,256.808 280.333,253.889 282.559 C 250.373 285.241,250.905 285.182,230.350 285.191 C 209.697 285.201,209.756 285.207,206.589 282.612 C 203.373 279.977,203.600 283.327,203.600 238.509 L 203.600 198.539 204.500 197.712 C 204.995 197.257,206.521 196.191,207.890 195.342 C 212.889 192.247,218.334 188.974,221.598 187.104 C 222.367 186.664,223.764 185.775,224.703 185.129 C 227.315 183.332,229.110 182.776,231.400 183.053 C 232.500 183.186,235.290 183.411,237.600 183.552 M122.400 192.490 C 121.410 192.952,119.700 193.746,118.600 194.256 C 114.507 196.153,114.213 196.461,111.737 201.469 C 105.333 214.419,90.275 220.256,78.319 214.423 C 74.660 212.638,72.782 212.915,72.186 215.328 C 71.403 218.492,72.225 278.653,73.075 280.474 C 74.077 282.622,77.760 285.774,80.000 286.403 C 81.874 286.929,118.532 286.926,120.425 286.400 C 122.667 285.777,126.072 283.003,127.200 280.881 L 128.200 279.000 128.307 236.363 L 128.414 193.726 127.578 192.663 C 126.545 191.350,124.956 191.297,122.400 192.490 M126.069 193.862 C 126.950 194.660,127.227 275.816,126.359 279.000 C 125.834 280.929,124.896 281.998,122.232 283.708 L 120.219 285.000 100.409 285.000 C 70.900 285.000,73.839 289.091,73.686 247.800 C 73.551 211.106,73.213 213.804,77.676 215.872 C 91.044 222.069,107.787 215.046,113.607 200.800 C 115.242 196.798,123.953 191.948,126.069 193.862 M138.600 193.523 C 136.748 193.858,136.800 192.641,136.804 235.576 C 136.810 284.145,136.476 281.085,142.194 284.973 L 144.588 286.600 164.394 286.715 C 181.729 286.816,184.408 286.751,185.870 286.194 C 188.566 285.165,190.612 283.424,192.052 280.932 L 193.400 278.600 193.508 242.748 C 193.579 219.482,193.476 206.525,193.215 205.841 C 192.281 203.382,190.403 203.658,185.407 206.989 C 171.846 216.028,155.714 212.784,145.670 199.000 C 141.669 193.509,141.103 193.071,138.600 193.523 M141.292 195.751 C 141.673 196.040,143.128 197.790,144.524 199.639 C 152.978 210.827,162.564 215.174,174.482 213.222 C 177.343 212.753,184.206 209.816,185.800 208.378 C 188.108 206.296,190.828 205.687,191.509 207.100 C 191.694 207.485,191.819 223.583,191.786 242.873 L 191.726 277.945 190.563 280.273 C 189.525 282.351,189.125 282.739,186.838 283.900 L 184.276 285.200 165.638 285.198 C 154.675 285.196,146.418 285.034,145.586 284.803 C 142.986 284.080,140.604 282.247,139.662 280.243 L 138.787 278.381 138.766 237.197 C 138.754 214.545,138.858 195.830,138.996 195.606 C 139.341 195.048,140.459 195.118,141.292 195.751 " stroke="none" fill="#9fb5bf" fill-rule="evenodd"></path><path id="path4" d="M316.600 173.570 C 312.717 175.136,307.629 175.811,304.117 175.225 C 298.574 174.301,299.765 173.881,290.000 180.212 C 287.910 181.568,284.670 183.628,282.800 184.792 C 280.930 185.955,278.497 187.506,277.394 188.238 C 276.291 188.969,274.177 189.942,272.696 190.399 C 268.419 191.720,268.800 187.315,268.802 235.480 C 268.805 284.236,268.538 281.381,273.335 283.911 L 275.400 285.000 294.302 285.115 C 317.114 285.253,318.255 285.040,320.611 280.200 L 321.584 278.200 321.618 225.872 C 321.644 186.037,321.538 173.408,321.177 172.972 C 320.519 172.180,319.822 172.271,316.600 173.570 M320.015 225.969 C 319.971 285.534,320.285 281.539,315.552 282.813 C 312.360 283.672,274.865 283.132,273.000 282.200 C 270.374 280.887,270.468 282.591,270.432 235.500 C 270.396 187.601,270.070 191.980,273.707 191.435 C 275.511 191.164,276.968 190.293,289.826 181.800 C 292.157 180.260,295.265 178.395,296.732 177.656 L 299.400 176.313 302.678 176.817 C 307.569 177.570,312.003 177.145,315.209 175.616 C 316.666 174.922,318.293 174.429,318.926 174.490 L 320.052 174.600 320.015 225.969 M227.905 183.383 C 227.083 183.697,225.642 184.483,224.703 185.129 C 223.764 185.775,222.367 186.664,221.598 187.104 C 218.334 188.974,212.889 192.247,207.890 195.342 C 206.521 196.191,204.995 197.257,204.500 197.712 L 203.600 198.539 203.600 238.509 C 203.600 283.327,203.373 279.977,206.589 282.612 C 209.756 285.207,209.697 285.201,230.350 285.191 C 250.905 285.182,250.373 285.241,253.889 282.559 C 256.808 280.333,256.600 283.926,256.600 235.742 C 256.600 186.804,256.934 191.372,253.280 190.385 C 251.366 189.868,247.728 187.882,245.200 185.973 C 242.681 184.071,241.868 183.812,237.600 183.552 C 235.290 183.411,232.500 183.186,231.400 183.053 C 230.088 182.894,228.886 183.007,227.905 183.383 M238.265 184.994 L 241.530 185.030 245.792 187.957 C 248.855 190.061,250.680 191.030,252.278 191.402 C 253.502 191.686,254.657 192.162,254.845 192.459 C 255.663 193.750,255.259 278.898,254.429 280.260 C 252.712 283.075,251.665 283.200,229.857 283.200 L 210.543 283.200 208.372 282.100 C 204.496 280.137,204.801 283.851,204.801 238.700 C 204.800 201.588,204.842 199.162,205.500 198.567 C 206.787 197.403,213.917 192.948,216.961 191.407 C 218.040 190.860,219.840 189.808,220.961 189.068 C 228.111 184.352,228.152 184.335,232.000 184.686 C 233.650 184.836,236.469 184.975,238.265 184.994 M123.046 193.683 C 118.363 195.386,114.686 198.159,113.607 200.800 C 107.787 215.046,91.044 222.069,77.676 215.872 C 73.213 213.804,73.551 211.106,73.686 247.800 C 73.839 289.091,70.900 285.000,100.409 285.000 L 120.219 285.000 122.232 283.708 C 127.152 280.550,126.795 284.287,126.798 235.962 C 126.800 188.537,127.125 192.199,123.046 193.683 M125.158 194.950 C 125.495 195.355,125.586 206.439,125.507 237.267 C 125.385 284.727,125.733 280.430,121.869 282.229 L 119.800 283.192 100.226 283.196 C 78.135 283.201,78.280 283.219,76.190 280.052 L 75.232 278.600 75.178 247.871 C 75.121 214.786,75.030 216.388,76.915 217.167 C 88.443 221.928,99.059 219.857,108.114 211.082 C 111.366 207.930,113.730 204.448,114.653 201.452 C 115.359 199.159,115.438 199.074,117.988 197.821 C 119.425 197.116,121.300 196.058,122.156 195.469 C 123.913 194.262,124.503 194.160,125.158 194.950 M138.996 195.606 C 138.858 195.830,138.754 214.545,138.766 237.197 L 138.787 278.381 139.662 280.243 C 140.604 282.247,142.986 284.080,145.586 284.803 C 146.418 285.034,154.675 285.196,165.638 285.198 L 184.276 285.200 186.838 283.900 C 189.125 282.739,189.525 282.351,190.563 280.273 L 191.726 277.945 191.786 242.873 C 191.819 223.583,191.694 207.485,191.509 207.100 C 190.828 205.687,188.108 206.296,185.800 208.378 C 184.206 209.816,177.343 212.753,174.482 213.222 C 162.564 215.174,152.978 210.827,144.524 199.639 C 141.289 195.356,139.815 194.281,138.996 195.606 M143.885 200.748 C 147.621 205.799,152.861 210.568,155.600 211.408 C 156.150 211.577,157.140 212.122,157.800 212.618 C 161.666 215.528,175.406 215.520,180.618 212.605 C 182.000 211.832,183.420 211.200,183.774 211.200 C 184.128 211.200,185.179 210.503,186.109 209.652 C 188.581 207.390,190.545 207.106,190.371 209.036 C 190.334 209.456,190.190 225.460,190.051 244.600 C 189.764 284.396,190.050 281.479,186.325 282.585 C 182.539 283.710,146.496 283.459,143.616 282.288 C 140.233 280.912,140.436 283.725,140.399 237.867 C 140.382 215.830,140.374 197.671,140.384 197.513 C 140.430 196.694,141.872 198.026,143.885 200.748 " stroke="none" fill="#7c7c8a" fill-rule="evenodd"></path></g></svg>